<?xml version="1.0" encoding="utf-8"?>
<svg version="1.1" id="Layer_1" xmlns="http://www.w3.org/2000/svg" xmlns:xlink="http://www.w3.org/1999/xlink" x="0px" y="0px"
	 viewBox="0 0 595.28 841.89" style="enable-background:new 0 0 595.28 841.89;" xml:space="preserve">
<style type="text/css">
	.st0{fill:#020203;}
</style>
<path class="st0" d="M296,418c-0.55,0-1-0.45-1-1s0.45-1,1-1s1,0.45,1,1S296.55,418,296,418z M296,422c-0.55,0-1-0.45-1-1
	s0.45-1,1-1s1,0.45,1,1S296.55,422,296,422z M296,426c-0.55,0-1-0.45-1-1s0.45-1,1-1s1,0.45,1,1S296.55,426,296,426z M300,418
	c-0.55,0-1-0.45-1-1s0.45-1,1-1s1,0.45,1,1S300.55,418,300,418z M300,422c-0.55,0-1-0.45-1-1s0.45-1,1-1s1,0.45,1,1
	S300.55,422,300,422z M300,426c-0.55,0-1-0.45-1-1s0.45-1,1-1s1,0.45,1,1S300.55,426,300,426z"/>
</svg>
